<svg xmlns="http://www.w3.org/2000/svg" viewBox="0 0 800 420" font-family="'Segoe UI','Helvetica Neue',Arial,sans-serif">
  <defs>
    <linearGradient id="bg" x1="0%" y1="0%" x2="100%" y2="100%">
      <stop offset="0%" stop-color="#0a0a14"/>
      <stop offset="100%" stop-color="#130a1e"/>
    </linearGradient>
    <pattern id="grid" width="40" height="40" patternUnits="userSpaceOnUse">
      <path d="M 40 0 L 0 0 0 40" fill="none" stroke="#1a0a2e" stroke-width="0.7"/>
    </pattern>
    <linearGradient id="redglow" x1="0%" y1="0%" x2="100%" y2="0%">
      <stop offset="0%" stop-color="#ef4444"/>
      <stop offset="100%" stop-color="#a855f7"/>
    </linearGradient>
  </defs>

  <rect width="800" height="420" fill="url(#bg)"/>
  <rect width="800" height="420" fill="url(#grid)"/>

  <!-- Top accent — red/purple gradient for red-team theme -->
  <rect x="0" y="0" width="800" height="4" fill="url(#redglow)"/>

  <!-- Left bar -->
  <rect x="52" y="56" width="4" height="254" rx="2" fill="#ef4444"/>

  <!-- Category chip -->
  <rect x="72" y="56" width="130" height="22" rx="11" fill="#1a0520" stroke="#ef4444" stroke-width="1"/>
  <text x="137" y="71" text-anchor="middle" font-size="9.5" fill="#ef4444" letter-spacing="2" font-weight="600">AI RED TEAMING</text>
  <text x="212" y="71" font-size="9.5" fill="#5a3a6a" letter-spacing="1">JUL 16, 2026</text>

  <!-- Title -->
  <text x="72" y="128" font-size="27" font-weight="800" fill="#f0e8ff" letter-spacing="-0.5">GPT-Red: OpenAI's</text>
  <text x="72" y="166" font-size="27" font-weight="800" fill="#f0e8ff" letter-spacing="-0.5">Automated Red-Teamer</text>
  <text x="72" y="204" font-size="27" font-weight="800" fill="#ef4444" letter-spacing="-0.5">vs. Prompt Injection</text>

  <!-- Divider -->
  <rect x="72" y="222" width="280" height="2" rx="1" fill="#2a1040"/>

  <!-- Subtitle -->
  <text x="72" y="250" font-size="14" fill="#9a7ab8">84% attack success rate. 6× fewer failures after training.</text>

  <!-- Tags -->
  <rect x="72" y="272" width="100" height="22" rx="11" fill="#110520" stroke="#ef4444" stroke-width="1"/>
  <text x="122" y="287" text-anchor="middle" font-size="10" fill="#ef4444">Prompt Injection</text>

  <rect x="180" y="272" width="78" height="22" rx="11" fill="#110520" stroke="#a855f7" stroke-width="1"/>
  <text x="219" y="287" text-anchor="middle" font-size="10" fill="#a855f7">LLM Security</text>

  <rect x="266" y="272" width="90" height="22" rx="11" fill="#110520" stroke="#f59e0b" stroke-width="1"/>
  <text x="311" y="287" text-anchor="middle" font-size="10" fill="#f59e0b">AI Agents</text>

  <!-- Branding -->
  <text x="72" y="388" font-size="11" fill="#2a1040" letter-spacing="2.5">CYBERSECURITYOS.NET</text>

  <!-- Right: stat cards -->
  <rect x="476" y="58" width="256" height="70" rx="7" fill="#0f0520" stroke="#ef4444" stroke-width="1"/>
  <rect x="476" y="58" width="4" height="70" fill="#ef4444"/>
  <text x="490" y="77" font-size="8" fill="#ef4444" letter-spacing="1" font-weight="700">ATTACK SUCCESS RATE</text>
  <text x="490" y="107" font-size="28" fill="#ef4444" font-weight="900" letter-spacing="-1">84%</text>
  <text x="554" y="107" font-size="9.5" fill="#7a5a8a">vs 13% human red-teamers</text>

  <rect x="476" y="138" width="256" height="70" rx="7" fill="#0f0520" stroke="#a855f7" stroke-width="1"/>
  <rect x="476" y="138" width="4" height="70" fill="#a855f7"/>
  <text x="490" y="157" font-size="8" fill="#a855f7" letter-spacing="1" font-weight="700">ROBUSTNESS IMPROVEMENT</text>
  <text x="490" y="187" font-size="28" fill="#a855f7" font-weight="900" letter-spacing="-1">6×</text>
  <text x="528" y="187" font-size="9.5" fill="#7a5a8a">fewer failures on GPT-5.6 Sol</text>

  <rect x="476" y="218" width="256" height="70" rx="7" fill="#0f0520" stroke="#f59e0b" stroke-width="1"/>
  <rect x="476" y="218" width="4" height="70" fill="#f59e0b"/>
  <text x="490" y="237" font-size="8" fill="#f59e0b" letter-spacing="1" font-weight="700">FAKE CHAIN-OF-THOUGHT</text>
  <text x="490" y="255" font-size="12.5" fill="#f0e8ff" font-weight="600">95% → &lt;10% success</text>
  <text x="490" y="275" font-size="9.5" fill="#7a5a8a">GPT-5.1 vs GPT-5.6 Sol</text>

  <rect x="476" y="298" width="256" height="70" rx="7" fill="#0f0520" stroke="#10b981" stroke-width="1"/>
  <rect x="476" y="298" width="4" height="70" fill="#10b981"/>
  <text x="490" y="317" font-size="8" fill="#10b981" letter-spacing="1" font-weight="700">LIVE AGENT BREACH</text>
  <text x="490" y="335" font-size="12.5" fill="#f0e8ff" font-weight="600">AI Vending Machine</text>
  <text x="490" y="355" font-size="9.5" fill="#7a5a8a">All 3 objectives achieved</text>
</svg>
