<svg xmlns="http://www.w3.org/2000/svg" version="1.1" viewBox="-5.0 -10.0 110.0 135.0">
 <path d="m90.508 26.73v-0.10156c0-0.035156 0-0.078125-0.003906-0.11719 0-2.5234-0.10938-5.0117-0.33203-7.4453v-0.003906c-0.046875-0.50391-0.36719-0.94531-0.83594-1.1406l-38.844-16.473c-0.34375-0.14453-0.73047-0.14453-1.0742 0l-39.086 16.531c-0.51562 0.21875-0.84766 0.72656-0.83984 1.2891 0.039062 2.793 0.097656 5.6484 0.19531 8.5352v0.054687c0 0.054687 0.003906 0.10938 0.011719 0.16406 0.078125 2.2891 0.1875 4.5938 0.33203 6.9062-0.011719 0.074218-0.019531 0.14844-0.019531 0.22266 0 0.13281 0.019531 0.26172 0.058593 0.39062 0.20313 3.0898 0.48438 6.1797 0.86328 9.2383l-0.003906 0.003906c0.003906 0.10156 0.015624 0.20312 0.039062 0.30078 0.51562 4.2344 1.2891 8.4297 2.3203 12.57 0.011719 0.10938 0.039063 0.21875 0.078126 0.32031 1.043 4.1602 2.5039 8.2031 4.3594 12.07 0.18359 0.375 0.36719 0.74219 0.55469 1.1094l0.007812 0.011719c6.0508 11.637 16.129 20.355 31.594 27.371 0.33984 0.15625 0.72266 0.16406 1.0703 0.03125 2.3086-0.90234 4.5352-1.9883 6.6641-3.2539 11.301-6.6992 20.395-18.258 26.305-33.418 1.4688-3.7852 2.6953-7.6602 3.668-11.605 0.042968-0.11328 0.074218-0.23438 0.085937-0.35938 0.55469-2.293 1.0391-4.6133 1.4336-6.9453 0.058594-0.15625 0.089844-0.32031 0.089844-0.48438v-0.039062c0.86328-5.2031 1.3008-10.465 1.3086-15.734zm-34.301 66.211c-1.832 1.0859-3.7461 2.0352-5.7188 2.8359-13.668-6.2891-22.875-13.945-28.656-23.898l26.594 0.003906c0.97656 0 1.7734 0.78125 1.7969 1.7578-2.7539 0.69531-4.5586 3.332-4.207 6.1523 0.35156 2.8164 2.7461 4.9336 5.5859 4.9336 2.8398 0 5.2344-2.1172 5.5859-4.9336 0.35156-2.8203-1.4531-5.457-4.207-6.1523-0.027344-2.4961-2.0586-4.5078-4.5547-4.5117h-28.078c-0.050781-0.10156-0.10156-0.19922-0.15234-0.30078-1.543-3.2031-2.7969-6.543-3.7383-9.9727h24.855c0.69531 2.7539 3.3359 4.5547 6.1523 4.207 2.8164-0.35156 4.9336-2.7461 4.9336-5.5859 0-2.8398-2.1172-5.2344-4.9336-5.5859-2.8164-0.34766-5.457 1.4531-6.1523 4.207h-25.582c-0.78125-3.2852-1.3984-6.6055-1.8477-9.9531h27.5c0.69531 2.7539 3.332 4.5586 6.1523 4.207 2.8164-0.34766 4.9336-2.7461 4.9336-5.5859s-2.1172-5.2344-4.9336-5.5859c-2.8203-0.34766-5.457 1.4531-6.1523 4.207h-27.848c-0.26172-2.2734-0.47266-4.5664-0.63672-6.8594h30.762c2.5156-0.003906 4.5508-2.043 4.5547-4.5547v-3.7773c2.7539-0.69531 4.5586-3.332 4.207-6.1523-0.35156-2.8164-2.7461-4.9336-5.5859-4.9336-2.8398 0-5.2344 2.1172-5.5859 4.9336-0.35156 2.8203 1.4531 5.457 4.207 6.1523v3.7734c0 0.99609-0.80469 1.8008-1.8008 1.8008h-30.941c-0.089844-1.5156-0.16406-3.0234-0.22266-4.5312h18.047c2.4961-0.003906 4.5273-2.0156 4.5547-4.5117 2.7539-0.69531 4.5547-3.332 4.2031-6.1523-0.34766-2.8164-2.7422-4.9297-5.582-4.9297s-5.2344 2.1133-5.5859 4.9297c-0.35156 2.8203 1.4531 5.457 4.207 6.1523-0.027344 0.97656-0.82422 1.7539-1.8008 1.7539h-18.137c-0.0625-2.1328-0.10938-4.2461-0.14063-6.3203l37.695-15.938 37.543 15.914c0.13281 1.668 0.21094 3.3789 0.23828 5.1094h-25.875c-1.082 0-1.8008-0.55469-1.8008-0.92578v-2.3984c2.7539-0.69531 4.5586-3.332 4.207-6.1523-0.35156-2.8164-2.7461-4.9336-5.5859-4.9336-2.8398 0-5.2344 2.1172-5.5859 4.9336-0.35156 2.8203 1.4531 5.457 4.207 6.1523v2.4023c0 2.0664 2 3.6836 4.5547 3.6836h25.875c-0.027344 1.7148-0.10938 3.4492-0.23828 5.2031l-19.996-0.003907c-0.69531-2.75-3.332-4.5547-6.1523-4.207-2.8164 0.35156-4.9336 2.7461-4.9336 5.5859 0 2.8438 2.1172 5.2383 4.9336 5.5859 2.8203 0.35156 5.457-1.4531 6.1523-4.207h19.75c-0.17578 1.707-0.40234 3.4258-0.67578 5.1523l-21.348 0.003906c-2.5156 0.003906-4.5508 2.0391-4.5547 4.5547v3.7773c-2.7539 0.69531-4.5586 3.332-4.207 6.1523 0.34766 2.8203 2.7461 4.9336 5.5859 4.9336s5.2344-2.1133 5.5859-4.9336c0.34766-2.8203-1.4531-5.457-4.207-6.1523v-3.7773c0-0.99219 0.80469-1.7969 1.7969-1.7969h20.875c-0.28125 1.5117-0.60156 3.0234-0.96094 4.5312h-8.8633c-2.5 0.003906-4.5273 2.0156-4.5586 4.5117-2.75 0.69531-4.5547 3.332-4.2031 6.1484 0.35156 2.8203 2.7461 4.9336 5.5859 4.9336 2.8359 0 5.2344-2.1133 5.582-4.9336 0.35156-2.8164-1.4531-5.4531-4.2031-6.1484 0.023438-0.97656 0.82031-1.7539 1.7969-1.7539h8.1719c-4.5781 17.098-13.93 33.289-28.238 41.773zm-4.6016-16.719c1.1602 0 2.207 0.69922 2.6523 1.7734 0.44531 1.0703 0.19922 2.3047-0.625 3.1289-0.82031 0.82031-2.0547 1.0664-3.1289 0.62109-1.0703-0.44531-1.7695-1.4922-1.7695-2.6523 0-1.5859 1.2852-2.8711 2.8711-2.8711zm-7.707-18.746c0-1.1602 0.69922-2.207 1.7734-2.6523 1.0742-0.44531 2.3086-0.19922 3.1289 0.62109 0.82031 0.82422 1.0664 2.0586 0.62109 3.1289-0.44141 1.0742-1.4883 1.7734-2.6523 1.7734-1.582 0-2.8672-1.2852-2.8711-2.8711zm0.070312-12.711c0-1.1602 0.69922-2.207 1.7734-2.6523 1.0703-0.44531 2.3047-0.19922 3.1289 0.62109 0.82031 0.82031 1.0664 2.0586 0.62109 3.1289-0.44531 1.0742-1.4922 1.7734-2.6523 1.7734-1.5859 0-2.8672-1.2852-2.8711-2.8711zm2.8711-19.156c-1.1602 0.003906-2.207-0.69531-2.6523-1.7695-0.44531-1.0742-0.19922-2.3086 0.62109-3.1289 0.82031-0.82031 2.0547-1.0664 3.1289-0.625 1.0742 0.44531 1.7734 1.4922 1.7734 2.6523-0.003907 1.5859-1.2852 2.8711-2.8711 2.8711zm-13.121-3.4688c-1.1602 0-2.207-0.69922-2.6523-1.7734-0.44531-1.0742-0.19922-2.3086 0.62109-3.1289 0.82422-0.82031 2.0586-1.0664 3.1289-0.62109 1.0742 0.44531 1.7734 1.4922 1.7734 2.6523 0 1.5859-1.2852 2.8711-2.8711 2.8711zm24.961-2.8086c-1.1641 0-2.2109-0.69922-2.6523-1.7695-0.44531-1.0742-0.20312-2.3086 0.62109-3.1289 0.82031-0.82422 2.0547-1.0703 3.1289-0.625 1.0703 0.44531 1.7734 1.4922 1.7734 2.6523-0.003906 1.5859-1.2891 2.8711-2.8711 2.8711zm6.2305 15.258c0 1.1602-0.69922 2.207-1.7734 2.6523-1.0703 0.44531-2.3086 0.19922-3.1289-0.625-0.82031-0.82031-1.0664-2.0547-0.62109-3.1289 0.44531-1.0703 1.4922-1.7695 2.6562-1.7695 1.582 0 2.8672 1.2852 2.8672 2.8711zm-2.8711 17.445h0.003907c1.1602 0 2.207 0.69922 2.6523 1.7734 0.44141 1.0703 0.19531 2.3047-0.625 3.1289-0.82031 0.82031-2.0547 1.0664-3.1289 0.62109-1.0742-0.44531-1.7734-1.4922-1.7695-2.6523 0-1.5859 1.2852-2.8672 2.8711-2.8672zm11.051 3.4688h0.003906c1.1602 0 2.207 0.69922 2.6523 1.7734 0.44531 1.0703 0.19922 2.3047-0.62109 3.1289-0.82031 0.82031-2.0547 1.0664-3.1289 0.62109-1.0703-0.44141-1.7734-1.4883-1.7734-2.6484 0-1.5859 1.2852-2.8711 2.8711-2.8711z"/>
<text x="0.0" y="117.5" font-size="5.0" font-weight="bold" font-family="Arbeit Regular, Helvetica, Arial-Unicode, Arial, Sans-serif" fill="#000000">Created by Andi wiyanto</text><text x="0.0" y="122.5" font-size="5.0" font-weight="bold" font-family="Arbeit Regular, Helvetica, Arial-Unicode, Arial, Sans-serif" fill="#000000">from Noun Project</text></svg>