<svg xmlns="http://www.w3.org/2000/svg" viewBox="0 0 1200 420" font-family="'Segoe UI','Helvetica Neue',Arial,sans-serif">
  <defs>
    <linearGradient id="bg" x1="0%" y1="0%" x2="100%" y2="100%">
      <stop offset="0%" stop-color="#050c1a"/>
      <stop offset="100%" stop-color="#0c1f3a"/>
    </linearGradient>
    <pattern id="grid" width="40" height="40" patternUnits="userSpaceOnUse">
      <path d="M 40 0 L 0 0 0 40" fill="none" stroke="#0e2440" stroke-width="0.7"/>
    </pattern>
  </defs>

  <rect width="1200" height="420" fill="url(#bg)"/>
  <rect width="1200" height="420" fill="url(#grid)"/>

  <!-- Top accent -->
  <rect x="0" y="0" width="1200" height="4" fill="#00c9e0"/>

  <!-- Left bar -->
  <rect x="64" y="56" width="4" height="280" rx="2" fill="#00c9e0"/>

  <!-- OS-WEEKLY chip -->
  <rect x="84" y="56" width="106" height="22" rx="11" fill="#061e38" stroke="#00c9e0" stroke-width="1"/>
  <text x="137" y="71" text-anchor="middle" font-size="9.5" fill="#00c9e0" letter-spacing="2" font-weight="600">OS-WEEKLY</text>
  <text x="200" y="71" font-size="9.5" fill="#3d6b8c" letter-spacing="1">JUL 12, 2026</text>

  <!-- Title -->
  <text x="84" y="136" font-size="32" font-weight="800" fill="#e8f4ff" letter-spacing="-0.5">Poisoned npm &amp; CISA's</text>
  <text x="84" y="182" font-size="32" font-weight="800" fill="#00c9e0" letter-spacing="-0.5">Patch Deadline &amp; AI's Double Edge</text>

  <!-- Divider -->
  <rect x="84" y="204" width="380" height="2" rx="1" fill="#1a3a5a"/>

  <!-- Subtitle -->
  <text x="84" y="234" font-size="15" fill="#7aaece">Six minutes from publish to flagged. Supply chain trust is still the softest target.</text>

  <!-- Tags -->
  <rect x="84" y="260" width="100" height="24" rx="12" fill="#051828" stroke="#f59e0b" stroke-width="1"/>
  <text x="134" y="276" text-anchor="middle" font-size="10.5" fill="#f59e0b">Supply Chain</text>

  <rect x="192" y="260" width="56" height="24" rx="12" fill="#051828" stroke="#ef4444" stroke-width="1"/>
  <text x="220" y="276" text-anchor="middle" font-size="10.5" fill="#ef4444">CISA</text>

  <rect x="256" y="260" width="80" height="24" rx="12" fill="#051828" stroke="#a855f7" stroke-width="1"/>
  <text x="296" y="276" text-anchor="middle" font-size="10.5" fill="#a855f7">Extortion</text>

  <rect x="344" y="260" width="106" height="24" rx="12" fill="#051828" stroke="#10b981" stroke-width="1"/>
  <text x="397" y="276" text-anchor="middle" font-size="10.5" fill="#10b981">AI and Security</text>

  <!-- Branding -->
  <text x="84" y="388" font-size="11" fill="#1e3d56" letter-spacing="2.5">CYBERSECURITYOS.NET</text>

  <!-- Right: story cards (two columns) -->
  <!-- Col 1 -->
  <rect x="680" y="58" width="230" height="78" rx="7" fill="#071528" stroke="#f59e0b" stroke-width="1"/>
  <rect x="680" y="58" width="4" height="78" fill="#f59e0b"/>
  <text x="694" y="79" font-size="8" fill="#f59e0b" letter-spacing="1" font-weight="700">SUPPLY CHAIN · NPM</text>
  <text x="694" y="97" font-size="12.5" fill="#f0f6ff" font-weight="600">jscrambler 8.14.0</text>
  <text x="694" y="117" font-size="9.5" fill="#5a8aa8">Rust infostealer, preinstall hook</text>

  <rect x="680" y="148" width="230" height="78" rx="7" fill="#071528" stroke="#ef4444" stroke-width="1"/>
  <rect x="680" y="148" width="4" height="78" fill="#ef4444"/>
  <text x="694" y="169" font-size="8" fill="#ef4444" letter-spacing="1" font-weight="700">CISA MANDATE</text>
  <text x="694" y="187" font-size="12.5" fill="#f0f6ff" font-weight="600">Langflow Auth Bypass</text>
  <text x="694" y="207" font-size="9.5" fill="#5a8aa8">Active exploitation confirmed</text>

  <rect x="680" y="238" width="230" height="78" rx="7" fill="#071528" stroke="#3b82f6" stroke-width="1"/>
  <rect x="680" y="238" width="4" height="78" fill="#3b82f6"/>
  <text x="694" y="259" font-size="8" fill="#3b82f6" letter-spacing="1" font-weight="700">FBI SEIZURE</text>
  <text x="694" y="277" font-size="12.5" fill="#f0f6ff" font-weight="600">NetNut / Popa Botnet</text>
  <text x="694" y="297" font-size="9.5" fill="#5a8aa8">2M devices, NASDAQ-listed firm</text>

  <rect x="680" y="328" width="230" height="70" rx="7" fill="#071528" stroke="#a855f7" stroke-width="1"/>
  <rect x="680" y="328" width="4" height="70" fill="#a855f7"/>
  <text x="694" y="347" font-size="8" fill="#a855f7" letter-spacing="1" font-weight="700">EXTORTION</text>
  <text x="694" y="365" font-size="12.5" fill="#f0f6ff" font-weight="600">Kairos / $1M · No Ransomware</text>
  <text x="694" y="385" font-size="9.5" fill="#5a8aa8">Exposure threat was leverage enough</text>

  <!-- Col 2 -->
  <rect x="924" y="58" width="230" height="78" rx="7" fill="#071528" stroke="#10b981" stroke-width="1"/>
  <rect x="924" y="58" width="4" height="78" fill="#10b981"/>
  <text x="938" y="79" font-size="8" fill="#10b981" letter-spacing="1" font-weight="700">AI AND SECURITY</text>
  <text x="938" y="97" font-size="12.5" fill="#f0f6ff" font-weight="600">The Asymmetric Future</text>
  <text x="938" y="117" font-size="9.5" fill="#5a8aa8">Both sides now have AI</text>

  <rect x="924" y="148" width="230" height="78" rx="7" fill="#071528" stroke="#00c9e0" stroke-width="1"/>
  <rect x="924" y="148" width="4" height="78" fill="#00c9e0"/>
  <text x="938" y="169" font-size="8" fill="#00c9e0" letter-spacing="1" font-weight="700">EU POLICY</text>
  <text x="938" y="187" font-size="12.5" fill="#f0f6ff" font-weight="600">EU AI + Cybersecurity Plan</text>
  <text x="938" y="207" font-size="9.5" fill="#5a8aa8">Regulatory framework by 2026</text>

  <rect x="924" y="238" width="230" height="78" rx="7" fill="#071528" stroke="#f59e0b" stroke-width="1"/>
  <rect x="924" y="238" width="4" height="78" fill="#f59e0b"/>
  <text x="938" y="259" font-size="8" fill="#f59e0b" letter-spacing="1" font-weight="700">THREAT INTEL · APT</text>
  <text x="938" y="277" font-size="12.5" fill="#f0f6ff" font-weight="600">UAT-7810 / LONGLEASH</text>
  <text x="938" y="297" font-size="9.5" fill="#5a8aa8">China-linked ORB expansion</text>

  <rect x="924" y="328" width="230" height="70" rx="7" fill="#071528" stroke="#64748b" stroke-width="1"/>
  <rect x="924" y="328" width="4" height="70" fill="#64748b"/>
  <text x="938" y="347" font-size="8" fill="#64748b" letter-spacing="1" font-weight="700">INDUSTRY</text>
  <text x="938" y="365" font-size="12.5" fill="#f0f6ff" font-weight="600">Jen Ellis Named MBE</text>
  <text x="938" y="385" font-size="9.5" fill="#5a8aa8">Research &amp; policy advocacy honored</text>
</svg>
