<svg xmlns="http://www.w3.org/2000/svg" viewBox="0 0 800 420" font-family="'Segoe UI','Helvetica Neue',Arial,sans-serif">
  <defs>
    <linearGradient id="bg" x1="0%" y1="0%" x2="100%" y2="100%">
      <stop offset="0%" stop-color="#050c1a"/>
      <stop offset="100%" stop-color="#0c1f3a"/>
    </linearGradient>
    <pattern id="grid" width="40" height="40" patternUnits="userSpaceOnUse">
      <path d="M 40 0 L 0 0 0 40" fill="none" stroke="#0e2440" stroke-width="0.7"/>
    </pattern>
  </defs>

  <rect width="800" height="420" fill="url(#bg)"/>
  <rect width="800" height="420" fill="url(#grid)"/>

  <!-- Top accent — red -->
  <rect x="0" y="0" width="800" height="4" fill="#ef4444"/>

  <!-- Left bar -->
  <rect x="52" y="56" width="4" height="262" rx="2" fill="#ef4444"/>

  <!-- Category chip -->
  <rect x="72" y="56" width="148" height="22" rx="11" fill="#1a0a0a" stroke="#ef4444" stroke-width="1"/>
  <text x="146" y="71" text-anchor="middle" font-size="9" fill="#ef4444" letter-spacing="1.5" font-weight="600">THREAT INTELLIGENCE</text>
  <text x="228" y="71" font-size="9.5" fill="#3d6b8c" letter-spacing="1">JUL 4, 2026</text>

  <!-- Title -->
  <text x="72" y="128" font-size="26" font-weight="800" fill="#e8f4ff" letter-spacing="-0.5">Scattered Spider's</text>
  <text x="72" y="166" font-size="26" font-weight="800" fill="#e8f4ff" letter-spacing="-0.5">Playbook Is Simple.</text>
  <text x="72" y="204" font-size="26" font-weight="800" fill="#ef4444" letter-spacing="-0.5">Defend It Simply.</text>

  <!-- Divider -->
  <rect x="72" y="222" width="290" height="2" rx="1" fill="#2a1a1a"/>

  <!-- Subtitle -->
  <text x="72" y="250" font-size="14" fill="#9ab0c8">£29M · 10M records · one phone call</text>

  <!-- Tags -->
  <rect x="72" y="272" width="136" height="22" rx="11" fill="#1a0a0a" stroke="#ef4444" stroke-width="1"/>
  <text x="140" y="287" text-anchor="middle" font-size="10" fill="#ef4444">Social Engineering</text>

  <rect x="216" y="272" width="84" height="22" rx="11" fill="#051828" stroke="#10b981" stroke-width="1"/>
  <text x="258" y="287" text-anchor="middle" font-size="10" fill="#10b981">FIDO2 MFA</text>

  <!-- Branding -->
  <text x="72" y="388" font-size="11" fill="#1e3d56" letter-spacing="2.5">CYBERSECURITYOS.NET</text>

  <!-- Right: attack step cards -->
  <rect x="476" y="60" width="256" height="72" rx="7" fill="#0d0a1a" stroke="#f59e0b" stroke-width="1"/>
  <rect x="476" y="60" width="4" height="72" fill="#f59e0b"/>
  <text x="490" y="79" font-size="8" fill="#f59e0b" letter-spacing="1" font-weight="700">STEP 1 · OSINT</text>
  <text x="490" y="97" font-size="12.5" fill="#f0f6ff" font-weight="600">LinkedIn → Persona</text>
  <text x="490" y="117" font-size="9.5" fill="#5a7a8a">10-min call, full access</text>

  <rect x="476" y="142" width="256" height="72" rx="7" fill="#1a0505" stroke="#ef4444" stroke-width="1"/>
  <rect x="476" y="142" width="4" height="72" fill="#ef4444"/>
  <text x="490" y="161" font-size="8" fill="#ef4444" letter-spacing="1" font-weight="700">STEP 2 · HELP DESK</text>
  <text x="490" y="179" font-size="12.5" fill="#f0f6ff" font-weight="600">Reset Password + MFA</text>
  <text x="490" y="199" font-size="9.5" fill="#5a7a8a">MGM: $100M in losses</text>

  <rect x="476" y="224" width="256" height="72" rx="7" fill="#0d0a1a" stroke="#8b5cf6" stroke-width="1"/>
  <rect x="476" y="224" width="4" height="72" fill="#8b5cf6"/>
  <text x="490" y="243" font-size="8" fill="#8b5cf6" letter-spacing="1" font-weight="700">STEP 3 · MFA BYPASS</text>
  <text x="490" y="261" font-size="12.5" fill="#f0f6ff" font-weight="600">SIM Swap · Push Bomb</text>
  <text x="490" y="281" font-size="9.5" fill="#5a7a8a">TfL: Telegram "Star Chat"</text>

  <rect x="476" y="306" width="256" height="72" rx="7" fill="#031410" stroke="#10b981" stroke-width="1"/>
  <rect x="476" y="306" width="4" height="72" fill="#10b981"/>
  <text x="490" y="325" font-size="8" fill="#10b981" letter-spacing="1" font-weight="700">THE DEFENSE</text>
  <text x="490" y="343" font-size="12.5" fill="#f0f6ff" font-weight="600">FIDO2 + Process Hygiene</text>
  <text x="490" y="363" font-size="9.5" fill="#4a7a6a">Verify, separate, red team</text>
</svg>
